<svg width="16" height="16" viewBox="0 0 16 16" fill="none" xmlns="http://www.w3.org/2000/svg">
<path d="M15.2 0H0.8C0.587827 0 0.384344 0.0842854 0.234315 0.234315C0.0842854 0.384344 0 0.587827 0 0.8V15.2C0 15.4122 0.0842854 15.6157 0.234315 15.7657C0.384344 15.9157 0.587827 16 0.8 16H15.2C15.4122 16 15.6157 15.9157 15.7657 15.7657C15.9157 15.6157 16 15.4122 16 15.2V0.8C16 0.587827 15.9157 0.384344 15.7657 0.234315C15.6157 0.0842854 15.4122 0 15.2 0ZM14.4 14.4H1.6V1.6H14.4V14.4Z" fill="#4F58B8"/>
</svg>
