<svg width="18" height="16" viewBox="0 0 18 16" fill="none" xmlns="http://www.w3.org/2000/svg">
<path d="M17.388 1.82136L11.988 0.0446825H11.925C11.8831 0.0405265 11.8409 0.0405265 11.799 0.0446825H11.592H11.475H11.412L6.3 1.77695L1.188 0.0446825C1.05266 0.000631092 0.908646 -0.011065 0.767825 0.0105568C0.627003 0.0321785 0.493397 0.0865 0.378003 0.16905C0.261685 0.250792 0.166741 0.358678 0.101014 0.483796C0.0352872 0.608913 0.000663258 0.747671 3.00018e-06 0.888606V13.3254C-0.000484045 13.5116 0.05834 13.6933 0.168161 13.8447C0.277981 13.9962 0.433244 14.1097 0.612003 14.1693L6.012 15.946C6.1933 16.0043 6.3887 16.0043 6.57 15.946L11.7 14.2581L16.812 15.9904C16.9076 16.0032 17.0044 16.0032 17.1 15.9904C17.2882 15.993 17.4719 15.9336 17.622 15.8216C17.7383 15.7399 17.8333 15.632 17.899 15.5069C17.9647 15.3818 17.9993 15.243 18 15.1021V2.66529C18.0005 2.47905 17.9417 2.29738 17.8318 2.14594C17.722 1.9945 17.5668 1.88096 17.388 1.82136ZM5.4 13.8673L1.8 12.6858V2.1234L5.4 3.30489V13.8673ZM10.8 12.6858L7.2 13.8673V3.30489L10.8 2.1234V12.6858ZM16.2 13.8673L12.6 12.6858V2.1234L16.2 3.30489V13.8673Z" fill="#4B4C55"/>
</svg>
