<?xml version="1.0" encoding="UTF-8" standalone="no"?>
<svg
   xmlns:dc="http://purl.org/dc/elements/1.1/"
   xmlns:cc="http://creativecommons.org/ns#"
   xmlns:rdf="http://www.w3.org/1999/02/22-rdf-syntax-ns#"
   xmlns:svg="http://www.w3.org/2000/svg"
   xmlns="http://www.w3.org/2000/svg"
   xmlns:sodipodi="http://sodipodi.sourceforge.net/DTD/sodipodi-0.dtd"
   xmlns:inkscape="http://www.inkscape.org/namespaces/inkscape"
   width="24"
   height="24"
   viewBox="0 0 24 24"
   fill="none"
   version="1.1"
   id="svg827"
   sodipodi:docname="choose_profile_image_icon.svg"
   inkscape:version="0.92.3 (2405546, 2018-03-11)">
  <metadata
     id="metadata833">
    <rdf:RDF>
      <cc:Work
         rdf:about="">
        <dc:format>image/svg+xml</dc:format>
        <dc:type
           rdf:resource="http://purl.org/dc/dcmitype/StillImage" />
      </cc:Work>
    </rdf:RDF>
  </metadata>
  <defs
     id="defs831" />
  <sodipodi:namedview
     pagecolor="#ffffff"
     bordercolor="#666666"
     borderopacity="1"
     objecttolerance="10"
     gridtolerance="10"
     guidetolerance="10"
     inkscape:pageopacity="0"
     inkscape:pageshadow="2"
     inkscape:window-width="1920"
     inkscape:window-height="1001"
     id="namedview829"
     showgrid="false"
     inkscape:zoom="34.041667"
     inkscape:cx="1.6156671"
     inkscape:cy="12"
     inkscape:window-x="-9"
     inkscape:window-y="-9"
     inkscape:window-maximized="1"
     inkscape:current-layer="svg827" />
  <path
     d="M 12,4 C 10.4178,4 8.87103,4.46919 7.55544,5.34824 6.23985,6.22729 5.21447,7.47672 4.60897,8.93853 4.00347,10.4003 3.84504,12.0089 4.15372,13.5607 c 0.30868,1.5519 1.07061,2.9773 2.18943,4.0962 1.11882,1.1188 2.54428,1.8807 4.09615,2.1894 1.5518,0.3087 3.1604,0.1502 4.6222,-0.4553 1.4618,-0.6055 2.7112,-1.6308 3.5903,-2.9464 C 19.5308,15.129 20,13.5822 20,12 20,10.9494 19.7931,9.90914 19.391,8.93853 18.989,7.96793 18.3997,7.08601 17.6569,6.34315 16.914,5.60028 16.0321,5.011 15.0615,4.60896 14.0909,4.20693 13.0506,4 12,4 Z m 0,14.4 C 10.7342,18.4 9.49683,18.0246 8.44435,17.3214 7.39188,16.6182 6.57157,15.6186 6.08717,14.4492 5.60277,13.2797 5.47603,11.9929 5.72298,10.7514 5.96992,9.50994 6.57946,8.36957 7.47452,7.47452 8.36958,6.57946 9.50995,5.96992 10.7514,5.72297 c 1.2415,-0.24694 2.5283,-0.1202 3.6978,0.3642 1.1694,0.4844 2.169,1.3047 2.8722,2.35718 C 18.0246,9.49682 18.4,10.7342 18.4,12 c 0,1.6974 -0.6743,3.3252 -1.8745,4.5255 C 15.3253,17.7257 13.6974,18.4 12,18.4 Z m 3.2,-7.2 H 12.8 V 8.8 C 12.8,8.58783 12.7157,8.38434 12.5657,8.23431 12.4157,8.08428 12.2122,8 12,8 11.7878,8 11.5843,8.08428 11.4343,8.23431 11.2843,8.38434 11.2,8.58783 11.2,8.8 v 2.4 H 8.8 C 8.58783,11.2 8.38435,11.2843 8.23432,11.4343 8.08429,11.5843 8,11.7878 8,12 8,12.2122 8.08429,12.4157 8.23432,12.5657 8.38435,12.7157 8.58783,12.8 8.8,12.8 h 2.4 v 2.4 c 0,0.2122 0.0843,0.4157 0.2343,0.5657 C 11.5843,15.9157 11.7878,16 12,16 c 0.2122,0 0.4157,-0.0843 0.5657,-0.2343 0.15,-0.15 0.2343,-0.3535 0.2343,-0.5657 v -2.4 h 2.4 c 0.2122,0 0.4157,-0.0843 0.5657,-0.2343 C 15.9157,12.4157 16,12.2122 16,12 16,11.7878 15.9157,11.5843 15.7657,11.4343 15.6157,11.2843 15.4122,11.2 15.2,11.2 Z"
     id="path825"
     inkscape:connector-curvature="0"
     style="fill:#d9d9d9" />
</svg>
