<svg width="20" height="20" viewBox="0 0 20 20" fill="none" xmlns="http://www.w3.org/2000/svg">
<path fill-rule="evenodd" clip-rule="evenodd" d="M1.66797 10C1.66797 5.39167 5.39297 1.66667 10.0013 1.66667C14.6096 1.66667 18.3346 5.39167 18.3346 10C18.3346 14.6083 14.6096 18.3333 10.0013 18.3333C5.39297 18.3333 1.66797 14.6083 1.66797 10ZM12.993 14.1667L14.168 12.9917L11.1763 10L14.168 7.00833L12.993 5.83333L10.0013 8.825L7.00964 5.83333L5.83464 7.00833L8.8263 10L5.83464 12.9917L7.00964 14.1667L10.0013 11.175L12.993 14.1667Z" fill="#4B4C55"/>
<mask id="mask0" mask-type="alpha" maskUnits="userSpaceOnUse" x="1" y="1" width="18" height="18">
<path fill-rule="evenodd" clip-rule="evenodd" d="M1.66797 10C1.66797 5.39167 5.39297 1.66667 10.0013 1.66667C14.6096 1.66667 18.3346 5.39167 18.3346 10C18.3346 14.6083 14.6096 18.3333 10.0013 18.3333C5.39297 18.3333 1.66797 14.6083 1.66797 10ZM12.993 14.1667L14.168 12.9917L11.1763 10L14.168 7.00833L12.993 5.83333L10.0013 8.825L7.00964 5.83333L5.83464 7.00833L8.8263 10L5.83464 12.9917L7.00964 14.1667L10.0013 11.175L12.993 14.1667Z" fill="white"/>
</mask>
<g mask="url(#mask0)">
<path fill-rule="evenodd" clip-rule="evenodd" d="M0 0H20V20H0V0Z" fill="#4B4C55"/>
</g>
</svg>
