<svg width="60" height="40" viewBox="0 0 60 40" fill="none" xmlns="http://www.w3.org/2000/svg">
<path d="M2.28774 13.5824C3.01008 6.08102 9.59096 0.593782 16.988 1.32644C24.3851 2.05909 29.1886 8.46236 29.0952 15.9991C28.9533 27.4996 19.4901 36.203 8.82508 38.2139C12.5694 36.396 15.3988 32.8697 16.2324 28.5251C15.6185 28.5522 14.9999 28.5534 14.3722 28.4913C6.97514 27.7586 1.56534 21.0844 2.28774 13.5824Z" fill="#FFC519"/>
<path d="M31.0939 13.5824C31.8162 6.08102 38.3971 0.593782 45.7942 1.32644C53.1912 2.05909 57.9947 8.46236 57.9014 15.9991C57.7594 27.4996 48.2962 36.203 37.6312 38.2139C41.3755 36.396 44.205 32.8697 45.0385 28.5251C44.4247 28.5522 43.8061 28.5534 43.1784 28.4913C35.7813 27.7586 30.3715 21.0844 31.0939 13.5824Z" fill="#FFC519"/>
</svg>
