<svg width="20" height="20" viewBox="0 0 20 20" fill="none" xmlns="http://www.w3.org/2000/svg">
<path fill-rule="evenodd" clip-rule="evenodd" d="M12.0846 2.5L12.918 3.33333H15.8346V5H4.16797V3.33333H7.08464L7.91797 2.5H12.0846ZM5.0013 15.8333C5.0013 16.75 5.7513 17.5 6.66797 17.5H13.3346C14.2513 17.5 15.0013 16.75 15.0013 15.8333V5.83333H5.0013V15.8333ZM6.66797 7.5H13.3346V15.8333H6.66797V7.5Z" fill="#2E368F"/>
<mask id="mask0" mask-type="alpha" maskUnits="userSpaceOnUse" x="4" y="2" width="12" height="16">
<path fill-rule="evenodd" clip-rule="evenodd" d="M12.0846 2.5L12.918 3.33333H15.8346V5H4.16797V3.33333H7.08464L7.91797 2.5H12.0846ZM5.0013 15.8333C5.0013 16.75 5.7513 17.5 6.66797 17.5H13.3346C14.2513 17.5 15.0013 16.75 15.0013 15.8333V5.83333H5.0013V15.8333ZM6.66797 7.5H13.3346V15.8333H6.66797V7.5Z" fill="white"/>
</mask>
<g mask="url(#mask0)">
<path fill-rule="evenodd" clip-rule="evenodd" d="M0 0H20V20H0V0Z" fill="#2E368F"/>
</g>
</svg>
