<svg width="6" height="10" viewBox="0 0 6 10" fill="none" xmlns="http://www.w3.org/2000/svg">
<path d="M5.72069 9.71943C5.89958 9.54169 6 9.30126 6 9.05065C6 8.80004 5.89958 8.55961 5.72069 8.38187L2.32043 4.97631L5.72069 1.61819C5.89959 1.44045 6 1.20002 6 0.949411C6 0.698798 5.89959 0.458368 5.72069 0.280632C5.63139 0.191719 5.52516 0.121146 5.40811 0.0729859C5.29106 0.0248256 5.16552 3.04811e-05 5.03871 3.04756e-05C4.91191 3.047e-05 4.78637 0.0248256 4.66932 0.0729859C4.55227 0.121146 4.44604 0.191719 4.35674 0.280631L0.284121 4.30279C0.194093 4.39098 0.122636 4.4959 0.0738709 4.6115C0.0251062 4.72709 -2.12046e-07 4.85108 -2.1752e-07 4.97631C-2.22994e-07 5.10154 0.0251062 5.22553 0.0738709 5.34113C0.122636 5.45673 0.194093 5.56165 0.284121 5.64984L4.35674 9.71943C4.44604 9.80834 4.55227 9.87891 4.66932 9.92707C4.78637 9.97523 4.91191 10 5.03871 10C5.16551 10 5.29106 9.97523 5.40811 9.92707C5.52516 9.87891 5.63139 9.80834 5.72069 9.71943Z" fill="#9F9BA7"/>
</svg>
