<?xml version="1.0" encoding="UTF-8" standalone="no"?>
<!-- Created with Inkscape (http://www.inkscape.org/) -->

<svg
   xmlns:dc="http://purl.org/dc/elements/1.1/"
   xmlns:cc="http://creativecommons.org/ns#"
   xmlns:rdf="http://www.w3.org/1999/02/22-rdf-syntax-ns#"
   xmlns:svg="http://www.w3.org/2000/svg"
   xmlns="http://www.w3.org/2000/svg"
   xmlns:sodipodi="http://sodipodi.sourceforge.net/DTD/sodipodi-0.dtd"
   xmlns:inkscape="http://www.inkscape.org/namespaces/inkscape"
   width="1.5875001mm"
   height="2.6458251mm"
   viewBox="0 0 1.5875001 2.6458251"
   version="1.1"
   id="svg857"
   inkscape:version="0.92.3 (2405546, 2018-03-11)"
   sodipodi:docname="verified_suppliers_category_arrow_next.svg">
  <defs
     id="defs851" />
  <sodipodi:namedview
     id="base"
     pagecolor="#ffffff"
     bordercolor="#666666"
     borderopacity="1.0"
     inkscape:pageopacity="0.0"
     inkscape:pageshadow="2"
     inkscape:zoom="11.2"
     inkscape:cx="7.3645364"
     inkscape:cy="9.7969229"
     inkscape:document-units="mm"
     inkscape:current-layer="layer1"
     showgrid="false"
     inkscape:window-width="1920"
     inkscape:window-height="1001"
     inkscape:window-x="-9"
     inkscape:window-y="-9"
     inkscape:window-maximized="1"
     fit-margin-top="0"
     fit-margin-left="0"
     fit-margin-right="0"
     fit-margin-bottom="0" />
  <metadata
     id="metadata854">
    <rdf:RDF>
      <cc:Work
         rdf:about="">
        <dc:format>image/svg+xml</dc:format>
        <dc:type
           rdf:resource="http://purl.org/dc/dcmitype/StillImage" />
        <dc:title></dc:title>
      </cc:Work>
    </rdf:RDF>
  </metadata>
  <g
     inkscape:label="Layer 1"
     inkscape:groupmode="layer"
     id="layer1"
     transform="translate(384.17973,-75.978426)">
    <g
       style="fill:none"
       id="g1436"
       transform="matrix(-0.26458333,0,0,0.26458333,-382.59223,75.978418)">
      <path
         id="path1425"
         d="M 5.72069,9.71943 C 5.89958,9.54169 6,9.30126 6,9.05065 6,8.80004 5.89958,8.55961 5.72069,8.38187 L 2.32043,4.97631 5.72069,1.61819 C 5.89959,1.44045 6,1.20002 6,0.949411 6,0.698798 5.89959,0.458368 5.72069,0.280632 5.63139,0.191719 5.52516,0.121146 5.40811,0.0729859 5.29106,0.0248256 5.16552,3.04811e-5 5.03871,3.04756e-5 4.91191,3.047e-5 4.78637,0.0248256 4.66932,0.0729859 4.55227,0.121146 4.44604,0.191719 4.35674,0.280631 L 0.284121,4.30279 C 0.194093,4.39098 0.122636,4.4959 0.0738709,4.6115 0.0251062,4.72709 -2.12046e-7,4.85108 -2.1752e-7,4.97631 -2.22994e-7,5.10154 0.0251062,5.22553 0.0738709,5.34113 0.122636,5.45673 0.194093,5.56165 0.284121,5.64984 L 4.35674,9.71943 C 4.44604,9.80834 4.55227,9.87891 4.66932,9.92707 4.78637,9.97523 4.91191,10 5.03871,10 5.16551,10 5.29106,9.97523 5.40811,9.92707 5.52516,9.87891 5.63139,9.80834 5.72069,9.71943 Z"
         inkscape:connector-curvature="0"
         style="fill:#9f9ba7" />
    </g>
  </g>
</svg>
