<svg width="24" height="24" viewBox="0 0 24 24" fill="none" xmlns="http://www.w3.org/2000/svg">
<path d="M5.18371 11.6464L4.8314 11.2941L4.47785 11.6452L3.05785 13.0552L2.7018 13.4087L3.0566 13.7635L8.6466 19.3535L9.00016 19.7071L9.35371 19.3535L21.3537 7.35352L21.7073 6.99997L21.3537 6.64641L19.9437 5.23641L19.5903 4.88303L19.2368 5.23625L9.00032 15.463L5.18371 11.6464Z" fill="#2E368F" stroke="#2E368F"/>
<mask id="mask0" mask-type="alpha" maskUnits="userSpaceOnUse" x="1" y="4" width="22" height="17">
<path d="M5.18371 11.6464L4.8314 11.2941L4.47785 11.6452L3.05785 13.0552L2.7018 13.4087L3.0566 13.7635L8.6466 19.3535L9.00016 19.7071L9.35371 19.3535L21.3537 7.35352L21.7073 6.99997L21.3537 6.64641L19.9437 5.23641L19.5903 4.88303L19.2368 5.23625L9.00032 15.463L5.18371 11.6464Z" fill="white" stroke="white"/>
</mask>
<g mask="url(#mask0)">
<path d="M0 -0.5H-0.5V0V24V24.5H0H24H24.5V24V0V-0.5H24H0Z" fill="#2E368F" stroke="#2E368F"/>
</g>
</svg>
