<svg width="14" height="14" viewBox="0 0 14 14" fill="none" xmlns="http://www.w3.org/2000/svg">
<path fill-rule="evenodd" clip-rule="evenodd" d="M1.68295 3.37166C2.61266 3.37166 3.36589 2.61714 3.36589 1.68583C3.36589 0.754521 2.61266 0 1.68295 0C0.753231 0 0 0.754521 0 1.68583C0 2.61714 0.753231 3.37166 1.68295 3.37166ZM4.95415 14V4.64879H7.73638V5.92789H7.7756C8.16317 5.19302 9.10904 4.4177 10.5198 4.4177C13.4589 4.4177 13.9998 6.35311 13.9998 8.87203V14H11.1V9.45207C11.1 8.36824 11.0815 6.97359 9.59235 6.97359C8.08243 6.97359 7.85288 8.15564 7.85288 9.37581V14H4.95415ZM3.13394 4.64879H0.230599V14H3.13394V4.64879Z" fill="#4B4C55"/>
</svg>
