<svg width="16" height="16" viewBox="0 0 16 16" fill="none" xmlns="http://www.w3.org/2000/svg">
<path d="M5.26085 14.265L5.26091 14.2651L5.26718 14.2588L8.3921 11.1339C8.44999 11.076 8.52851 11.0435 8.61037 11.0435C8.69224 11.0435 8.77076 11.076 8.82865 11.1339C8.88654 11.1918 8.91906 11.2703 8.91906 11.3521C8.91906 11.434 8.88654 11.5125 8.82865 11.5704L5.70367 14.6874C5.11431 15.2254 4.34045 15.5162 3.54236 15.4993C2.74098 15.4823 1.97714 15.1564 1.41036 14.5896C0.84357 14.0229 0.517663 13.259 0.500697 12.4576C0.483801 11.6596 0.774612 10.8857 1.31263 10.2963L4.42958 7.17135C4.42964 7.17129 4.42971 7.17122 4.42978 7.17116C4.48765 7.11339 4.56608 7.08094 4.64785 7.08094C4.72972 7.08094 4.80824 7.11346 4.86613 7.17135C4.92402 7.22924 4.95654 7.30776 4.95654 7.38963C4.95654 7.4715 4.92402 7.55001 4.86613 7.6079L1.74191 10.7321C1.74178 10.7322 1.74165 10.7324 1.74153 10.7325C1.50951 10.9637 1.3254 11.2384 1.19976 11.5409C1.07404 11.8436 1.00933 12.1681 1.00933 12.4958C1.00933 12.8235 1.07404 13.148 1.19976 13.4507C1.32547 13.7534 1.50971 14.0282 1.74191 14.2595L1.74187 14.2595L1.74754 14.265C2.21909 14.7201 2.84886 14.9744 3.5042 14.9744C4.15954 14.9744 4.7893 14.7201 5.26085 14.265ZM10.6391 1.83509L10.639 1.83503L10.6327 1.84131L7.50781 4.96622C7.47914 4.99489 7.44511 5.01762 7.40766 5.03314C7.37021 5.04865 7.33007 5.05663 7.28953 5.05663C7.249 5.05663 7.20886 5.04865 7.1714 5.03314C7.13395 5.01762 7.09992 4.99489 7.07126 4.96622C7.04259 4.93756 7.01986 4.90353 7.00434 4.86608C6.98883 4.82862 6.98085 4.78848 6.98085 4.74795C6.98085 4.70741 6.98883 4.66727 7.00434 4.62982C7.01984 4.5924 7.04256 4.5584 7.07119 4.52975C7.07121 4.52972 7.07124 4.5297 7.07126 4.52967L10.2031 1.40586C10.2032 1.40582 10.2032 1.40577 10.2033 1.40573C10.7871 0.825604 11.5767 0.5 12.3997 0.5C13.2223 0.5 14.0116 0.825257 14.5953 1.4048C15.1748 1.98852 15.5 2.7777 15.5 3.60027C15.5 4.42328 15.1744 5.21287 14.5943 5.79668C14.5943 5.79675 14.5942 5.79681 14.5941 5.79688L11.4699 8.9292L11.4689 8.9302C11.4405 8.95882 11.4067 8.98154 11.3695 8.99704C11.3323 9.01255 11.2924 9.02053 11.2521 9.02053C11.2117 9.02053 11.1718 9.01255 11.1346 8.99704C11.0974 8.98154 11.0636 8.95882 11.0352 8.93019L11.0323 8.92729C11.0037 8.8989 10.981 8.86513 10.9655 8.82791C10.95 8.7907 10.942 8.75079 10.942 8.71047C10.942 8.67015 10.95 8.63023 10.9655 8.59303L10.5039 8.40073L10.9655 8.59302C10.981 8.55581 11.0037 8.52203 11.0323 8.49365L11.0338 8.4922L14.158 5.36798C14.1582 5.3678 14.1583 5.36763 14.1585 5.36746C14.3905 5.13628 14.5745 4.86161 14.7001 4.55918L14.2384 4.36739L14.7002 4.55918C14.8259 4.25653 14.8906 3.93202 14.8906 3.60429C14.8906 3.27656 14.8259 2.95206 14.7002 2.6494L14.2384 2.8412L14.7001 2.6494C14.5744 2.34675 14.3902 2.07189 14.158 1.84061L14.158 1.84057L14.1524 1.83509C13.6808 1.37999 13.0511 1.12566 12.3957 1.12566C11.7404 1.12566 11.1106 1.37999 10.6391 1.83509ZM5.97158 10.3367V10.3367L5.9658 10.3367C5.92561 10.3369 5.88577 10.3292 5.84856 10.314C5.81135 10.2988 5.77751 10.2764 5.74898 10.2481L5.74896 10.2481C5.72034 10.2197 5.69762 10.186 5.68212 10.1488C5.66661 10.1115 5.65863 10.0716 5.65863 10.0313C5.65863 9.99099 5.66662 9.95108 5.68212 9.91387C5.69762 9.87665 5.72034 9.84287 5.74897 9.81448L5.75042 9.81304L9.71294 5.85051C9.77083 5.79262 9.84935 5.7601 9.93121 5.7601C10.0131 5.7601 10.0916 5.79262 10.1495 5.85051C10.2074 5.9084 10.2399 5.98692 10.2399 6.06879C10.2399 6.15066 10.2074 6.22917 10.1495 6.28706L6.18841 10.2481C6.18822 10.2483 6.18803 10.2485 6.18783 10.2487C6.15942 10.2767 6.12579 10.2989 6.08882 10.314C6.05162 10.3292 6.01177 10.3369 5.97158 10.3367Z" stroke="#4B4C55"/>
</svg>
