<svg width="16" height="16" viewBox="0 0 16 16" fill="none" xmlns="http://www.w3.org/2000/svg">
<path fill-rule="evenodd" clip-rule="evenodd" d="M14.0013 5.33333C14.7346 5.33333 15.3346 5.93333 15.3346 6.66667L15.328 6.72L15.3346 6.72667V8C15.3346 8.17333 15.3013 8.33333 15.2413 8.48667L13.228 13.1867C13.028 13.6667 12.5546 14 12.0013 14H6.0013C5.26797 14 4.66797 13.4 4.66797 12.6667V6C4.66797 5.63333 4.81464 5.3 5.0613 5.06L9.44797 0.666668L10.1546 1.36667C10.3346 1.54667 10.448 1.8 10.448 2.07333L10.428 2.28667L9.79463 5.33333H14.0013ZM3.33464 14H0.667969V6H3.33464V14Z" fill="#00C853"/>
<mask id="mask0" mask-type="alpha" maskUnits="userSpaceOnUse" x="0" y="0" width="16" height="15">
<path fill-rule="evenodd" clip-rule="evenodd" d="M14.0013 5.33333C14.7346 5.33333 15.3346 5.93333 15.3346 6.66667L15.328 6.72L15.3346 6.72667V8C15.3346 8.17333 15.3013 8.33333 15.2413 8.48667L13.228 13.1867C13.028 13.6667 12.5546 14 12.0013 14H6.0013C5.26797 14 4.66797 13.4 4.66797 12.6667V6C4.66797 5.63333 4.81464 5.3 5.0613 5.06L9.44797 0.666668L10.1546 1.36667C10.3346 1.54667 10.448 1.8 10.448 2.07333L10.428 2.28667L9.79463 5.33333H14.0013ZM3.33464 14H0.667969V6H3.33464V14Z" fill="white"/>
</mask>
<g mask="url(#mask0)">
<path fill-rule="evenodd" clip-rule="evenodd" d="M0 0H16V16H0V0Z" fill="#00C853"/>
</g>
</svg>
