<svg width="16" height="16" viewBox="0 0 16 16" fill="none" xmlns="http://www.w3.org/2000/svg">
<path fill-rule="evenodd" clip-rule="evenodd" d="M4.0013 2H10.0013C10.7346 2 11.3346 2.6 11.3346 3.33333V10C11.3346 10.3667 11.188 10.7 10.948 10.94L6.55464 15.3333L5.84797 14.6333C5.66797 14.4533 5.55464 14.2 5.55464 13.9267L5.57464 13.7133L6.20797 10.6667H2.0013C1.26797 10.6667 0.667969 10.0667 0.667969 9.33333L0.674635 9.28L0.667969 9.27333V8C0.667969 7.82667 0.701302 7.66667 0.761302 7.51333L2.77464 2.81333C2.97464 2.33333 3.44797 2 4.0013 2ZM12.668 10V2H15.3346V10H12.668Z" fill="#FF4848"/>
<mask id="mask0" mask-type="alpha" maskUnits="userSpaceOnUse" x="0" y="2" width="16" height="14">
<path fill-rule="evenodd" clip-rule="evenodd" d="M4.0013 2H10.0013C10.7346 2 11.3346 2.6 11.3346 3.33333V10C11.3346 10.3667 11.188 10.7 10.948 10.94L6.55464 15.3333L5.84797 14.6333C5.66797 14.4533 5.55464 14.2 5.55464 13.9267L5.57464 13.7133L6.20797 10.6667H2.0013C1.26797 10.6667 0.667969 10.0667 0.667969 9.33333L0.674635 9.28L0.667969 9.27333V8C0.667969 7.82667 0.701302 7.66667 0.761302 7.51333L2.77464 2.81333C2.97464 2.33333 3.44797 2 4.0013 2ZM12.668 10V2H15.3346V10H12.668Z" fill="white"/>
</mask>
<g mask="url(#mask0)">
<path fill-rule="evenodd" clip-rule="evenodd" d="M0 0H16V16H0V0Z" fill="#FF4848"/>
</g>
</svg>
