<svg width="22" height="16" viewBox="0 0 22 16" fill="none" xmlns="http://www.w3.org/2000/svg">
<path fill-rule="evenodd" clip-rule="evenodd" d="M16 4H19L22 8V13H20C20 14.66 18.66 16 17 16C15.34 16 14 14.66 14 13H8C8 14.66 6.66 16 5 16C3.34 16 2 14.66 2 13H0V2C0 0.9 0.9 0 2 0H16V4ZM4 13C4 13.55 4.45 14 5 14C5.55 14 6 13.55 6 13C6 12.45 5.55 12 5 12C4.45 12 4 12.45 4 13ZM18.5 5.5L20.46 8H16V5.5H18.5ZM16 13C16 13.55 16.45 14 17 14C17.55 14 18 13.55 18 13C18 12.45 17.55 12 17 12C16.45 12 16 12.45 16 13Z" fill="#9EA8AB"/>
</svg>
