<svg width="17" height="22" viewBox="0 0 17 22" fill="none" xmlns="http://www.w3.org/2000/svg">
<path fill-rule="evenodd" clip-rule="evenodd" d="M8.51984 0V3C12.763 3 16.1998 6.58 16.1998 11C16.1998 12.57 15.7582 14.03 15.0094 15.26L13.6078 13.8C14.0398 12.97 14.2798 12.01 14.2798 11C14.2798 7.69 11.6974 5 8.51984 5V8L4.67984 4L8.51984 0ZM2.75984 11C2.75984 14.31 5.34224 17 8.51984 17V14L12.3598 18L8.51984 22V19C4.27664 19 0.839844 15.42 0.839844 11C0.839844 9.43 1.28144 7.97 2.03024 6.74L3.43184 8.2C2.99984 9.03 2.75984 9.99 2.75984 11Z" fill="#9EA8AB"/>
</svg>
