<svg width="18" height="18" viewBox="0 0 18 18" fill="none" xmlns="http://www.w3.org/2000/svg">
<path d="M16.1463 2.98742L17.003 2.13877L15.8633 1.00002L14.5811 2.28565L7.23332 9.62535C6.40211 9.07695 5.39692 8.85662 4.41254 9.00705C3.42815 9.15748 2.53464 9.66797 1.90516 10.4396C1.27567 11.2112 0.955018 12.189 1.00533 13.1836C1.05565 14.1781 1.47335 15.1186 2.1775 15.8227C2.88165 16.5269 3.82211 16.9446 4.81665 16.9949C5.8112 17.0452 6.78901 16.7245 7.56063 16.0951C8.33225 15.4656 8.84273 14.5721 8.99317 13.5877C9.1436 12.6033 8.92327 11.5981 8.37487 10.7669L12.8687 6.265L14.573 7.97733L15.7065 6.83578L14.0022 5.13149L15.0128 4.12897L15.8638 4.9787L17.0007 3.8418L16.1463 2.98742ZM5.02257 15.3894C4.54557 15.3894 4.07929 15.2479 3.68268 14.9829C3.28608 14.7179 2.97696 14.3413 2.79442 13.9006C2.61188 13.4599 2.56412 12.975 2.65718 12.5071C2.75024 12.0393 2.97993 11.6096 3.31722 11.2723C3.65451 10.935 4.08423 10.7053 4.55206 10.6123C5.01989 10.5192 5.50481 10.567 5.9455 10.7495C6.38618 10.932 6.76284 11.2412 7.02785 11.6378C7.29285 12.0344 7.4343 12.5007 7.4343 12.9776C7.4343 13.6173 7.1802 14.2307 6.72792 14.683C6.27563 15.1353 5.6622 15.3894 5.02257 15.3894Z" fill="#9EA8AB"/>
<path fill-rule="evenodd" clip-rule="evenodd" d="M16.1463 2.98742L17.0007 3.8418L15.8638 4.9787L15.0128 4.12897L14.0022 5.13149L15.7065 6.83578L14.573 7.97733L12.8687 6.265L8.37487 10.7669C8.92327 11.5981 9.1436 12.6033 8.99317 13.5877C8.84273 14.5721 8.33225 15.4656 7.56063 16.0951C6.78901 16.7245 5.8112 17.0452 4.81665 16.9949C3.82211 16.9446 2.88165 16.5269 2.1775 15.8227C1.47335 15.1186 1.05565 14.1781 1.00533 13.1836C0.955018 12.189 1.27567 11.2112 1.90516 10.4396C2.53464 9.66797 3.42815 9.15748 4.41254 9.00705C5.39692 8.85662 6.40211 9.07695 7.23332 9.62535L14.5811 2.28565L15.8633 1.00002L17.003 2.13877L16.1463 2.98742ZM15.863 0.575562L17.4284 2.13968L16.5716 2.98842L17.425 3.8418L15.864 5.4028L15.0121 4.55223L14.4274 5.13234L16.13 6.83503L14.5733 8.40285L12.8684 6.68996L8.75489 10.8108C9.24865 11.6608 9.43896 12.6564 9.28972 13.633C9.12806 14.6909 8.57948 15.651 7.75027 16.3275C6.92106 17.004 5.87027 17.3486 4.80149 17.2945C3.73272 17.2404 2.72207 16.7915 1.96537 16.0348C1.20866 15.2781 0.759787 14.2675 0.705717 13.1987C0.651646 12.1299 0.99623 11.0792 1.6727 10.2499C2.34917 9.42074 3.30936 8.87215 4.36722 8.71049C5.34377 8.56126 6.33937 8.75156 7.18935 9.24532L12.0939 4.34858L15.863 0.575562ZM3.84935 14.7335C4.19663 14.9655 4.60491 15.0894 5.02257 15.0894C5.58263 15.0894 6.11976 14.8669 6.51579 14.4709C6.91181 14.0748 7.1343 13.5377 7.1343 12.9776C7.1343 12.56 7.01045 12.1517 6.77841 11.8044C6.54637 11.4572 6.21656 11.1865 5.83069 11.0267C5.44482 10.8668 5.02023 10.825 4.61059 10.9065C4.20096 10.988 3.82468 11.1891 3.52935 11.4844C3.23402 11.7798 3.0329 12.156 2.95142 12.5657C2.86993 12.9753 2.91175 13.3999 3.07159 13.7858C3.23142 14.1716 3.50208 14.5014 3.84935 14.7335ZM3.68268 14.9829C4.07929 15.2479 4.54557 15.3894 5.02257 15.3894C5.6622 15.3894 6.27563 15.1353 6.72792 14.683C7.1802 14.2307 7.4343 13.6173 7.4343 12.9776C7.4343 12.5007 7.29285 12.0344 7.02785 11.6378C6.76284 11.2412 6.38618 10.932 5.9455 10.7495C5.50481 10.567 5.01989 10.5192 4.55206 10.6123C4.08423 10.7053 3.65451 10.935 3.31722 11.2723C2.97993 11.6096 2.75024 12.0393 2.65718 12.5071C2.56412 12.975 2.61188 13.4599 2.79442 13.9006C2.97696 14.3413 3.28608 14.7179 3.68268 14.9829Z" fill="#9EA8AB"/>
</svg>
