<svg width="16" height="18" viewBox="0 0 16 18" fill="none" xmlns="http://www.w3.org/2000/svg">
<path d="M5.3118 9.32787C5.8433 9.32787 6.27416 8.89701 6.27416 8.36551C6.27416 7.83401 5.8433 7.40315 5.3118 7.40315C4.7803 7.40315 4.34944 7.83401 4.34944 8.36551C4.34944 8.89701 4.7803 9.32787 5.3118 9.32787Z" fill="#4F58B8"/>
<path d="M9.16124 8.36551C9.16124 8.89701 8.73038 9.32787 8.19888 9.32787C7.66739 9.32787 7.23652 8.89701 7.23652 8.36551C7.23652 7.83401 7.66739 7.40315 8.19888 7.40315C8.73038 7.40315 9.16124 7.83401 9.16124 8.36551Z" fill="#4F58B8"/>
<path d="M11.086 9.32787C11.6175 9.32787 12.0483 8.89701 12.0483 8.36551C12.0483 7.83401 11.6175 7.40315 11.086 7.40315C10.5545 7.40315 10.1236 7.83401 10.1236 8.36551C10.1236 8.89701 10.5545 9.32787 11.086 9.32787Z" fill="#4F58B8"/>
<path fill-rule="evenodd" clip-rule="evenodd" d="M8.19893 0.666626C3.54949 0.666626 0.5 4.53068 0.5 8.36552C0.5 10.7384 1.34463 12.3184 2.2936 13.4146L0.98731 17.3333L2.64494 17.0018C3.62208 16.8063 4.19259 16.6922 4.76543 16.5914C5.56923 16.4498 6.37762 16.3343 8.32047 16.0568L8.33498 16.0547C12.8269 15.413 15.8978 12.2069 15.8978 8.36552C15.8978 4.63963 12.8569 0.666626 8.19893 0.666626ZM2.42472 8.36552C2.42472 5.46381 4.73786 2.59135 8.19893 2.59135C11.6514 2.59135 13.9731 5.55431 13.9731 8.36552C13.9731 11.0612 11.8052 13.6147 8.06278 14.1493C5.64757 14.4944 4.94886 14.5943 3.86047 14.8005L4.4882 12.9174L4.0676 12.4968C3.24483 11.6741 2.42472 10.4637 2.42472 8.36552Z" fill="#4F58B8"/>
</svg>
