<svg width="45" height="58" viewBox="0 0 45 58" fill="none" xmlns="http://www.w3.org/2000/svg">
<path d="M44.45 12.187L43.679 11.416L33.584 1.321L32.813 0.55C32.464 0.201 31.98 0 31.485 0H2.463C1.277 0 0 0.916 0 2.926V39V55.537V56C0 56.837 0.842 57.653 1.838 57.91C1.888 57.923 1.936 57.942 1.988 57.952C2.144 57.983 2.303 58 2.463 58H42.537C42.697 58 42.856 57.983 43.012 57.952C43.064 57.942 43.112 57.923 43.162 57.91C44.158 57.653 45 56.837 45 56V55.537V39V13.978C45 13.211 44.908 12.645 44.45 12.187ZM41.435 12H33V3.565L41.435 12ZM2.463 56C2.392 56 2.328 55.974 2.265 55.951C2.109 55.877 2 55.721 2 55.537V41H43V55.537C43 55.721 42.891 55.876 42.735 55.951C42.672 55.974 42.608 56 42.537 56H2.463ZM2 39V2.926C2 2.709 2.033 2 2.463 2H31.058C31.025 2.126 31 2.256 31 2.391V14H42.609C42.744 14 42.873 13.975 42.999 13.942C42.999 13.957 43 13.963 43 13.978V39H2Z" fill="#2E368F"/>
<path d="M16.7352 45.4001C16.3112 44.9541 15.7782 44.5951 15.1352 44.3271C14.4922 44.0591 13.7472 43.9241 12.9002 43.9241H9.86523V54.0001H13.6792C13.8062 54.0001 14.0022 53.9841 14.2672 53.9521C14.5312 53.9201 14.8232 53.8481 15.1422 53.7331C15.4612 53.6191 15.7912 53.4481 16.1332 53.2201C16.4752 52.9921 16.7822 52.6801 17.0562 52.2831C17.3302 51.8861 17.5552 51.3941 17.7332 50.8061C17.9112 50.2181 18.0002 49.5091 18.0002 48.6801C18.0002 48.0781 17.8952 47.4921 17.6862 46.9231C17.4762 46.3551 17.1592 45.8471 16.7352 45.4001ZM15.5392 51.7301C15.0472 52.4411 14.2452 52.7961 13.1332 52.7961H11.5062V45.1671H12.4632C13.2472 45.1671 13.8852 45.2701 14.3772 45.4751C14.8692 45.6801 15.2592 45.9491 15.5462 46.2821C15.8332 46.6151 16.0262 46.9861 16.1272 47.3961C16.2272 47.8061 16.2772 48.2211 16.2772 48.6401C16.2772 49.9891 16.0312 51.0201 15.5392 51.7301Z" fill="#2E368F"/>
<path d="M26.7641 45.072C26.3861 44.643 25.9441 44.318 25.4381 44.094C24.9321 43.87 24.3781 43.759 23.7771 43.759C23.1761 43.759 22.6221 43.87 22.1161 44.094C21.6101 44.318 21.1681 44.643 20.7901 45.072C20.4121 45.501 20.1151 46.036 19.9011 46.678C19.6871 47.321 19.5801 48.066 19.5801 48.913C19.5801 49.76 19.6871 50.508 19.9011 51.155C20.1151 51.802 20.4111 52.34 20.7901 52.768C21.1681 53.197 21.6101 53.52 22.1161 53.739C22.6221 53.958 23.1761 54.067 23.7771 54.067C24.3781 54.067 24.9321 53.958 25.4381 53.739C25.9441 53.52 26.3861 53.197 26.7641 52.768C27.1421 52.339 27.4381 51.802 27.6531 51.155C27.8671 50.508 27.9741 49.76 27.9741 48.913C27.9741 48.066 27.8671 47.32 27.6531 46.678C27.4381 46.036 27.1421 45.501 26.7641 45.072ZM26.0871 50.698C25.9501 51.185 25.7611 51.58 25.5201 51.881C25.2781 52.182 25.0051 52.399 24.7001 52.53C24.3941 52.662 24.0731 52.728 23.7361 52.728C23.4081 52.728 23.0951 52.658 22.7991 52.516C22.5031 52.374 22.2381 52.152 22.0061 51.846C21.7741 51.54 21.5911 51.147 21.4591 50.663C21.3271 50.18 21.2561 49.597 21.2471 48.913C21.2561 48.211 21.3291 47.619 21.4661 47.136C21.6031 46.653 21.7921 46.259 22.0331 45.953C22.2741 45.647 22.5481 45.432 22.8531 45.304C23.1581 45.176 23.4791 45.113 23.8171 45.113C24.1451 45.113 24.4571 45.181 24.7541 45.318C25.0501 45.455 25.3151 45.678 25.5471 45.988C25.7791 46.298 25.9621 46.692 26.0941 47.171C26.2261 47.65 26.2971 48.231 26.3061 48.914C26.2961 49.616 26.2241 50.211 26.0871 50.698Z" fill="#2E368F"/>
<path d="M32.5624 45.954C32.8034 45.648 33.0774 45.433 33.3824 45.305C33.6874 45.177 34.0084 45.114 34.3464 45.114C34.6474 45.114 34.9364 45.174 35.2144 45.292C35.4924 45.41 35.7454 45.602 35.9734 45.866L37.1084 44.854C36.7344 44.49 36.3104 44.216 35.8374 44.034C35.3634 43.851 34.8534 43.761 34.3064 43.761C33.7134 43.761 33.1624 43.872 32.6524 44.096C32.1414 44.32 31.6974 44.645 31.3194 45.074C30.9414 45.503 30.6444 46.038 30.4304 46.68C30.2164 47.323 30.1094 48.068 30.1094 48.915C30.1094 49.762 30.2164 50.51 30.4304 51.157C30.6444 51.804 30.9404 52.342 31.3194 52.77C31.6974 53.199 32.1394 53.522 32.6454 53.741C33.1514 53.96 33.7054 54.069 34.3064 54.069C34.8534 54.069 35.3634 53.978 35.8374 53.796C36.3114 53.613 36.7344 53.34 37.1084 52.976L35.9734 51.978C35.7364 52.243 35.4744 52.434 35.1874 52.552C34.9004 52.67 34.5924 52.73 34.2644 52.73C33.9364 52.73 33.6234 52.66 33.3274 52.518C33.0314 52.376 32.7664 52.154 32.5344 51.848C32.3024 51.542 32.1194 51.149 31.9874 50.665C31.8554 50.182 31.7844 49.599 31.7754 48.915C31.7844 48.213 31.8574 47.621 31.9944 47.138C32.1314 46.655 32.3204 46.26 32.5624 45.954Z" fill="#2E368F"/>
<path d="M7 14H13C13.552 14 14 13.552 14 13C14 12.448 13.552 12 13 12H7C6.448 12 6 12.448 6 13C6 13.552 6.448 14 7 14Z" fill="#2E368F"/>
<path d="M7 19H16C16.552 19 17 18.552 17 18C17 17.448 16.552 17 16 17H7C6.448 17 6 17.448 6 18C6 18.552 6.448 19 7 19Z" fill="#2E368F"/>
<path d="M20 19C20.26 19 20.52 18.8899 20.71 18.7099C20.89 18.5199 21 18.26 21 18C21 17.74 20.89 17.48 20.71 17.29C20.34 16.92 19.66 16.92 19.29 17.29C19.11 17.48 19 17.74 19 18C19 18.26 19.11 18.5199 19.29 18.7099C19.48 18.8899 19.74 19 20 19Z" fill="#2E368F"/>
<path d="M24 19H32C32.552 19 33 18.552 33 18C33 17.448 32.552 17 32 17H24C23.448 17 23 17.448 23 18C23 18.552 23.448 19 24 19Z" fill="#2E368F"/>
<path d="M6.29 32.29C6.11 32.48 6 32.74 6 33C6 33.26 6.11 33.5199 6.29 33.7099C6.48 33.8899 6.74 34 7 34C7.26 34 7.52 33.8899 7.71 33.7099C7.89 33.5199 8 33.26 8 33C8 32.73 7.89 32.48 7.71 32.29C7.34 31.92 6.66 31.92 6.29 32.29Z" fill="#2E368F"/>
<path d="M19 32H11C10.448 32 10 32.448 10 33C10 33.552 10.448 34 11 34H19C19.552 34 20 33.552 20 33C20 32.448 19.552 32 19 32Z" fill="#2E368F"/>
<path d="M38 17H36C35.448 17 35 17.448 35 18C35 18.552 35.448 19 36 19H38C38.552 19 39 18.552 39 18C39 17.448 38.552 17 38 17Z" fill="#2E368F"/>
<path d="M7 24H29C29.552 24 30 23.552 30 23C30 22.448 29.552 22 29 22H7C6.448 22 6 22.448 6 23C6 23.552 6.448 24 7 24Z" fill="#2E368F"/>
<path d="M38 22H32C31.448 22 31 22.448 31 23C31 23.552 31.448 24 32 24H38C38.552 24 39 23.552 39 23C39 22.448 38.552 22 38 22Z" fill="#2E368F"/>
<path d="M7 29H11C11.552 29 12 28.552 12 28C12 27.448 11.552 27 11 27H7C6.448 27 6 27.448 6 28C6 28.552 6.448 29 7 29Z" fill="#2E368F"/>
<path d="M25 27H15C14.448 27 14 27.448 14 28C14 28.552 14.448 29 15 29H25C25.552 29 26 28.552 26 28C26 27.448 25.552 27 25 27Z" fill="#2E368F"/>
<path d="M38 27H29C28.448 27 28 27.448 28 28C28 28.552 28.448 29 29 29H38C38.552 29 39 28.552 39 28C39 27.448 38.552 27 38 27Z" fill="#2E368F"/>
</svg>
