<svg width="45" height="58" viewBox="0 0 45 58" fill="none" xmlns="http://www.w3.org/2000/svg">
<path d="M44.45 12.187L43.679 11.416L33.584 1.321L32.813 0.55C32.464 0.201 31.98 0 31.485 0H2.463C1.277 0 0 0.916 0 2.926V39V55.537V56C0 56.837 0.842 57.653 1.838 57.91C1.888 57.923 1.936 57.942 1.988 57.952C2.144 57.983 2.303 58 2.463 58H42.537C42.697 58 42.856 57.983 43.012 57.952C43.064 57.942 43.112 57.923 43.162 57.91C44.158 57.653 45 56.837 45 56V55.537V39V13.978C45 13.211 44.908 12.645 44.45 12.187ZM41.435 12H33V3.565L41.435 12ZM2.463 56C2.392 56 2.328 55.974 2.265 55.951C2.109 55.877 2 55.721 2 55.537V41H43V55.537C43 55.721 42.891 55.876 42.735 55.951C42.672 55.974 42.608 56 42.537 56H2.463ZM2 39V2.926C2 2.709 2.033 2 2.463 2H31.058C31.025 2.126 31 2.256 31 2.391V14H42.609C42.744 14 42.873 13.975 42.999 13.942C42.999 13.957 43 13.963 43 13.978V39H2Z" fill="#2E368F"/>
<path d="M15.5411 44.7441C15.2081 44.4711 14.8321 44.2651 14.4131 44.1291C13.9941 43.9921 13.5701 43.9241 13.1421 43.9241H10.2441V54.0001H11.8851V50.3631H13.1021C13.6301 50.3631 14.1141 50.2861 14.5511 50.1311C14.9881 49.9761 15.3621 49.7571 15.6721 49.4751C15.9821 49.1931 16.2231 48.8441 16.3971 48.4291C16.5701 48.0141 16.6571 47.5521 16.6571 47.0411C16.6571 46.5581 16.5541 46.1231 16.3491 45.7351C16.1441 45.3471 15.8741 45.0181 15.5411 44.7441ZM14.9191 48.0731C14.8181 48.3511 14.6871 48.5671 14.5231 48.7221C14.3591 48.8771 14.1791 48.9891 13.9831 49.0571C13.7871 49.1251 13.5881 49.1601 13.3881 49.1601H11.8841V45.1681H13.1141C13.5331 45.1681 13.8701 45.2341 14.1261 45.3661C14.3811 45.4981 14.5791 45.6621 14.7211 45.8581C14.8621 46.0541 14.9551 46.2591 15.0011 46.4731C15.0461 46.6871 15.0691 46.8761 15.0691 47.0401C15.0691 47.4511 15.0191 47.7951 14.9191 48.0731Z" fill="#2E368F"/>
<path d="M25.454 45.4001C25.03 44.9541 24.497 44.5951 23.854 44.3271C23.211 44.0591 22.466 43.9241 21.619 43.9241H18.584V54.0001H22.398C22.525 54.0001 22.721 53.9841 22.986 53.9521C23.25 53.9201 23.542 53.8481 23.861 53.7331C24.18 53.6191 24.51 53.4481 24.852 53.2201C25.194 52.9921 25.501 52.6801 25.775 52.2831C26.049 51.8861 26.274 51.3941 26.452 50.8061C26.63 50.2181 26.719 49.5091 26.719 48.6801C26.719 48.0781 26.614 47.4921 26.405 46.9231C26.194 46.3551 25.878 45.8471 25.454 45.4001ZM24.258 51.7301C23.766 52.4411 22.964 52.7961 21.852 52.7961H20.225V45.1671H21.182C21.966 45.1671 22.604 45.2701 23.096 45.4751C23.588 45.6801 23.978 45.9491 24.265 46.2821C24.552 46.6151 24.745 46.9861 24.846 47.3961C24.946 47.8061 24.996 48.2211 24.996 48.6401C24.996 49.9891 24.75 51.0201 24.258 51.7301Z" fill="#2E368F"/>
<path d="M29.0977 54.0001H30.7657V49.4611H34.9767V48.3401H30.7657V45.1681H35.3997V43.9241H29.0977V54.0001Z" fill="#2E368F"/>
<path d="M31.9277 22.961C31.0087 22.961 29.8807 23.081 28.5697 23.319C26.7397 21.377 24.8297 18.541 23.4817 15.757C24.8187 10.128 24.1497 9.33101 23.8547 8.95501C23.5407 8.55501 23.0977 7.90601 22.5937 7.90601C22.3827 7.90601 21.8067 8.00201 21.5777 8.07801C21.0017 8.27001 20.6917 8.71401 20.4437 9.29301C19.7367 10.946 20.7067 13.764 21.7047 15.936C20.8517 19.329 19.4207 23.39 17.9167 26.686C14.1267 28.422 12.1137 30.127 11.9317 31.754C11.8657 32.346 12.0057 33.215 13.0467 33.996C13.3317 34.209 13.6657 34.322 14.0137 34.322C14.8887 34.322 15.7727 33.652 16.7957 32.215C17.5417 31.167 18.3427 29.738 19.1787 27.964C21.8567 26.793 25.1697 25.735 28.0067 25.142C29.5867 26.659 31.0017 27.427 32.2177 27.427C33.1137 27.427 33.8817 27.015 34.4377 26.236C35.0167 25.425 35.1487 24.699 34.8277 24.076C34.4427 23.327 33.4937 22.961 31.9277 22.961ZM14.0357 32.634C13.5677 32.275 13.5947 32.033 13.6047 31.942C13.6667 31.386 14.5377 30.399 16.6747 29.198C15.0547 32.19 14.1847 32.587 14.0357 32.634ZM22.2357 9.71201C22.2787 9.69801 23.2807 10.813 22.3317 12.928C20.9057 11.469 22.1377 9.74501 22.2357 9.71201ZM20.1687 25.738C21.1837 23.319 22.1277 20.648 22.8427 18.174C23.9657 20.192 25.3147 22.15 26.6647 23.718C24.5307 24.219 22.2587 24.926 20.1687 25.738ZM33.0697 25.259C32.7617 25.69 32.0937 25.7 31.8597 25.7C31.3267 25.7 31.1277 25.383 30.3127 24.756C30.9847 24.67 31.6187 24.648 32.1237 24.648C33.0127 24.648 33.1757 24.779 33.2987 24.845C33.2767 24.916 33.2187 25.05 33.0697 25.259Z" fill="#2E368F"/>
</svg>
