<svg width="45" height="58" viewBox="0 0 45 58" fill="none" xmlns="http://www.w3.org/2000/svg">
<path d="M44.45 12.187L43.679 11.416L33.584 1.321L32.813 0.55C32.464 0.201 31.98 0 31.485 0H2.463C1.277 0 0 0.916 0 2.926V39V55.537V56C0 56.837 0.842 57.653 1.838 57.91C1.888 57.923 1.936 57.942 1.988 57.952C2.144 57.983 2.303 58 2.463 58H42.537C42.697 58 42.856 57.983 43.012 57.952C43.064 57.942 43.112 57.923 43.162 57.91C44.158 57.653 45 56.837 45 56V55.537V39V13.978C45 13.211 44.908 12.645 44.45 12.187ZM41.435 12H33V3.565L41.435 12ZM2.463 56C2.392 56 2.328 55.974 2.265 55.951C2.109 55.877 2 55.721 2 55.537V41H43V55.537C43 55.721 42.891 55.876 42.735 55.951C42.672 55.974 42.608 56 42.537 56H2.463ZM2 39V2.926C2 2.709 2.033 2 2.463 2H31.058C31.025 2.126 31 2.256 31 2.391V14H42.609C42.744 14 42.873 13.975 42.999 13.942C42.999 13.957 43 13.963 43 13.978V39H2Z" fill="#2E368F"/>
<path d="M15.7267 43.9241L13.7987 48.0251H13.6617L11.8847 43.9241H10.0117L12.7317 49.1051L10.1757 54.0001H12.0757L13.7987 50.1991H13.9357L15.5347 54.0001H17.4357L14.8787 49.1051L17.5997 43.9241H15.7267Z" fill="#2E368F"/>
<path d="M21.5371 43.9241H19.8691V54.0001H26.1721V52.7561H21.5371V43.9241Z" fill="#2E368F"/>
<path d="M32.4404 49.064C32.1264 48.836 31.7864 48.642 31.4214 48.483C31.0564 48.324 30.7194 48.16 30.4094 47.991C30.0994 47.822 29.8394 47.627 29.6304 47.403C29.4204 47.179 29.3164 46.885 29.3164 46.521C29.3164 46.375 29.3524 46.222 29.4254 46.063C29.4984 45.904 29.5984 45.76 29.7264 45.632C29.8534 45.504 29.9994 45.398 30.1644 45.311C30.3294 45.224 30.5014 45.172 30.6844 45.154C31.0124 45.127 31.2814 45.122 31.4914 45.14C31.7004 45.159 31.8694 45.19 31.9974 45.236C32.1244 45.282 32.2234 45.327 32.2914 45.373C32.3594 45.419 32.4214 45.455 32.4764 45.482C32.4854 45.473 32.5124 45.427 32.5584 45.345C32.6034 45.263 32.6584 45.16 32.7224 45.037C32.7854 44.914 32.8544 44.782 32.9274 44.641C33.0004 44.499 33.0644 44.37 33.1184 44.251C32.8534 44.078 32.5074 43.952 32.0794 43.875C31.6504 43.798 31.2264 43.759 30.8084 43.759C30.3984 43.759 30.0084 43.822 29.6394 43.95C29.2704 44.078 28.9464 44.263 28.6684 44.504C28.3904 44.745 28.1694 45.039 28.0054 45.386C27.8414 45.733 27.7594 46.129 27.7594 46.575C27.7594 47.067 27.8634 47.477 28.0734 47.805C28.2824 48.133 28.5474 48.418 28.8664 48.659C29.1854 48.9 29.5274 49.11 29.8914 49.288C30.2554 49.466 30.5954 49.643 30.9104 49.821C31.2254 49.999 31.4864 50.197 31.6964 50.416C31.9054 50.635 32.0104 50.899 32.0104 51.209C32.0104 51.72 31.8624 52.105 31.5664 52.364C31.2704 52.624 30.8434 52.754 30.2884 52.754C30.1054 52.754 29.9104 52.735 29.7004 52.699C29.4904 52.663 29.2814 52.615 29.0714 52.555C28.8614 52.495 28.6584 52.432 28.4634 52.364C28.2674 52.296 28.1054 52.225 27.9784 52.152L27.6914 53.328C27.8464 53.465 28.0304 53.581 28.2454 53.677C28.4594 53.773 28.6844 53.848 28.9224 53.903C29.1594 53.958 29.3944 53.997 29.6264 54.019C29.8584 54.041 30.0844 54.053 30.3034 54.053C30.8134 54.053 31.2694 53.976 31.6704 53.821C32.0714 53.666 32.4084 53.459 32.6824 53.199C32.9564 52.939 33.1674 52.638 33.3184 52.297C33.4694 51.956 33.5444 51.602 33.5444 51.237C33.5444 50.699 33.4394 50.259 33.2304 49.918C33.0174 49.577 32.7554 49.292 32.4404 49.064Z" fill="#2E368F"/>
<path d="M18 13H6V17V19V21V23V25V27V29V31V35H16H18H39V31V29V27V25V23V21V17H18V13ZM8 19H16V21H8V19ZM8 23H16V25H8V23ZM8 27H16V29H8V27ZM16 33H8V31H16V33ZM37 33H18V31H37V33ZM37 29H18V27H37V29ZM37 25H18V23H37V25ZM37 19V21H18V19H37ZM8 17V15H16V17H8Z" fill="#2E368F"/>
</svg>
