<svg width="24" height="24" viewBox="0 0 24 24" fill="none" xmlns="http://www.w3.org/2000/svg">
<path fill-rule="evenodd" clip-rule="evenodd" d="M11 5C7.68629 5 5 7.68629 5 11C5 14.3137 7.68629 17 11 17C12.4696 17 13.8134 16.473 14.8568 15.5964C16.1687 14.4942 17 12.8447 17 11C17 7.68629 14.3137 5 11 5ZM3 11C3 6.58172 6.58172 3 11 3C15.4183 3 19 6.58172 19 11C19 13.0688 18.2139 14.9547 16.9262 16.3741L20.845 20.2929L19.4308 21.7071L15.4036 17.6799C14.1405 18.514 12.6261 19 11 19C6.58172 19 3 15.4183 3 11Z" fill="#2E368F"/>
<mask id="mask0" mask-type="alpha" maskUnits="userSpaceOnUse" x="3" y="3" width="18" height="19">
<path fill-rule="evenodd" clip-rule="evenodd" d="M11 5C7.68629 5 5 7.68629 5 11C5 14.3137 7.68629 17 11 17C12.4696 17 13.8134 16.473 14.8568 15.5964C16.1687 14.4942 17 12.8447 17 11C17 7.68629 14.3137 5 11 5ZM3 11C3 6.58172 6.58172 3 11 3C15.4183 3 19 6.58172 19 11C19 13.0688 18.2139 14.9547 16.9262 16.3741L20.845 20.2929L19.4308 21.7071L15.4036 17.6799C14.1405 18.514 12.6261 19 11 19C6.58172 19 3 15.4183 3 11Z" fill="#2E368F"/>
</mask>
<g mask="url(#mask0)">
<path fill-rule="evenodd" clip-rule="evenodd" d="M0 0H24V24H0V0Z" fill="#2E368F"/>
</g>
</svg>
