<svg width="20" height="20" viewBox="0 0 20 20" fill="none" xmlns="http://www.w3.org/2000/svg">
<path fill-rule="evenodd" clip-rule="evenodd" d="M17.5 10C17.5 10.34 17.47 10.66 17.43 10.98L19.54 12.63C19.73 12.78 19.78 13.05 19.66 13.27L17.66 16.73C17.54 16.95 17.28 17.04 17.05 16.95L14.56 15.95C14.04 16.34 13.48 16.68 12.87 16.93L12.49 19.58C12.46 19.82 12.25 20 12 20H7.99996C7.74996 20 7.53996 19.82 7.50996 19.58L7.12996 16.93C6.51996 16.68 5.95996 16.35 5.43996 15.95L2.94996 16.95C2.72996 17.03 2.45996 16.95 2.33996 16.73L0.339961 13.27C0.219961 13.05 0.269961 12.78 0.459961 12.63L2.56996 10.98C2.52996 10.66 2.49996 10.33 2.49996 10C2.49996 9.67 2.52996 9.34 2.56996 9.02L0.459961 7.37C0.269961 7.22 0.209961 6.95 0.339961 6.73L2.33996 3.27C2.45996 3.05 2.71996 2.96 2.94996 3.05L5.43996 4.05C5.95996 3.66 6.51996 3.32 7.12996 3.07L7.50996 0.42C7.53996 0.18 7.74996 0 7.99996 0H12C12.25 0 12.46 0.18 12.49 0.42L12.87 3.07C13.48 3.32 14.04 3.65 14.56 4.05L17.05 3.05C17.27 2.97 17.54 3.05 17.66 3.27L19.66 6.73C19.78 6.95 19.73 7.22 19.54 7.37L17.43 9.02C17.47 9.34 17.5 9.66 17.5 10ZM6.49996 10C6.49996 11.93 8.06996 13.5 9.99996 13.5C11.93 13.5 13.5 11.93 13.5 10C13.5 8.07 11.93 6.5 9.99996 6.5C8.06996 6.5 6.49996 8.07 6.49996 10Z" fill="#2E368F"/>
</svg>
