<?xml version="1.0" encoding="UTF-8" standalone="no"?>
<svg
   xmlns:dc="http://purl.org/dc/elements/1.1/"
   xmlns:cc="http://creativecommons.org/ns#"
   xmlns:rdf="http://www.w3.org/1999/02/22-rdf-syntax-ns#"
   xmlns:svg="http://www.w3.org/2000/svg"
   xmlns="http://www.w3.org/2000/svg"
   xmlns:sodipodi="http://sodipodi.sourceforge.net/DTD/sodipodi-0.dtd"
   xmlns:inkscape="http://www.inkscape.org/namespaces/inkscape"
   width="10"
   height="6"
   viewBox="0 0 10 6"
   fill="none"
   version="1.1"
   id="svg827"
   sodipodi:docname="open_section_icon.svg"
   inkscape:version="0.92.3 (2405546, 2018-03-11)">
  <metadata
     id="metadata833">
    <rdf:RDF>
      <cc:Work
         rdf:about="">
        <dc:format>image/svg+xml</dc:format>
        <dc:type
           rdf:resource="http://purl.org/dc/dcmitype/StillImage" />
      </cc:Work>
    </rdf:RDF>
  </metadata>
  <defs
     id="defs831" />
  <sodipodi:namedview
     pagecolor="#ffffff"
     bordercolor="#666666"
     borderopacity="1"
     objecttolerance="10"
     gridtolerance="10"
     guidetolerance="10"
     inkscape:pageopacity="0"
     inkscape:pageshadow="2"
     inkscape:window-width="1920"
     inkscape:window-height="1001"
     id="namedview829"
     showgrid="false"
     inkscape:zoom="47.611857"
     inkscape:cx="10.836473"
     inkscape:cy="4.307072"
     inkscape:window-x="-9"
     inkscape:window-y="-9"
     inkscape:window-maximized="1"
     inkscape:current-layer="svg827" />
  <path
     d="M0.258312 1.64326L4.33724 5.71588C4.42563 5.80591 4.53078 5.87736 4.64665 5.92613C4.76251 5.97489 4.88679 6 5.0123 6C5.13782 6 5.26209 5.97489 5.37796 5.92613C5.49382 5.87736 5.59898 5.80591 5.68737 5.71588L9.71876 1.64326C9.80787 1.55396 9.87861 1.44773 9.92688 1.33068C9.97515 1.21363 10 1.08809 10 0.961285C10 0.834485 9.97515 0.708939 9.92688 0.59189C9.87861 0.474841 9.80787 0.368607 9.71876 0.279313C9.54061 0.100415 9.29963 -6.12283e-08 9.04844 -8.31878e-08C8.79726 -1.05147e-07 8.55627 0.100415 8.37813 0.279313L5.0123 3.67957L1.64648 0.279312C1.46938 0.101861 1.23035 0.0018217 0.980918 0.000760244C0.855787 2.97182e-05 0.731743 0.0242583 0.615901 0.0720583C0.500057 0.119858 0.394693 0.19029 0.305851 0.279312C0.213552 0.365392 0.139053 0.469096 0.086658 0.584432C0.0342622 0.699767 0.00500915 0.824448 0.000588858 0.951271C-0.00383143 1.07809 0.0166687 1.20454 0.060904 1.32332C0.10514 1.44209 0.172234 1.55083 0.258312 1.64326Z"
     id="path825"
     style="fill:#404040"
     fill="#1F2569" />
</svg>
