<svg width="91" height="91" viewBox="0 0 91 91" fill="none" xmlns="http://www.w3.org/2000/svg">
<path d="M45.5 2C45.5 0.895431 44.6041 -0.00458995 43.5006 0.0439265C33.6871 0.475384 24.256 4.07371 16.6351 10.328C8.49788 17.0061 2.92792 26.299 0.87427 36.6234C-1.17938 46.9478 0.410346 57.6649 5.37258 66.9485C10.3348 76.2322 18.3625 83.5081 28.0879 87.5365C37.8133 91.5649 48.6346 92.0965 58.7079 89.0408C68.7813 85.9851 77.4836 79.5311 83.3319 70.7785C89.1802 62.0258 91.8127 51.5162 90.7809 41.0402C89.8146 31.229 85.6902 22.0158 79.0561 14.7715C78.3101 13.9569 77.0402 13.9598 76.2591 14.7409L61.4052 29.5948C60.6242 30.3758 60.6329 31.6365 61.3341 32.49C63.9003 35.6131 65.4956 39.439 65.8947 43.4913C66.3594 48.2097 65.1737 52.9433 62.5396 56.8855C59.9055 60.8277 55.986 63.7346 51.4489 65.111C46.9118 66.4873 42.0379 66.2478 37.6575 64.4334C33.2772 62.619 29.6614 59.3419 27.4264 55.1605C25.1914 50.9791 24.4754 46.1521 25.4004 41.5019C26.3253 36.8518 28.8341 32.6662 32.4991 29.6584C35.6468 27.0752 39.4801 25.4979 43.5031 25.1041C44.6024 24.9965 45.5 24.1112 45.5 23.0066V2Z" fill="url(#paint0_linear)"/>
<defs>
<linearGradient id="paint0_linear" x1="34.9999" y1="6.5001" x2="71" y2="30.5001" gradientUnits="userSpaceOnUse">
<stop stop-color="#18B25A"/>
<stop offset="1" stop-color="#4BD787"/>
</linearGradient>
</defs>
</svg>
