<svg width="91" height="91" viewBox="0 0 91 91" fill="none" xmlns="http://www.w3.org/2000/svg">
<mask id="path-1-inside-1" fill="white">
<path d="M91 45.5C91 70.629 70.629 91 45.5 91C20.371 91 0 70.629 0 45.5C0 20.371 20.371 0 45.5 0C70.629 0 91 20.371 91 45.5ZM25.0066 45.5C25.0066 56.8182 34.1818 65.9934 45.5 65.9934C56.8182 65.9934 65.9934 56.8182 65.9934 45.5C65.9934 34.1818 56.8182 25.0066 45.5 25.0066C34.1818 25.0066 25.0066 34.1818 25.0066 45.5Z"/>
</mask>
<path d="M91 45.5C91 70.629 70.629 91 45.5 91C20.371 91 0 70.629 0 45.5C0 20.371 20.371 0 45.5 0C70.629 0 91 20.371 91 45.5ZM25.0066 45.5C25.0066 56.8182 34.1818 65.9934 45.5 65.9934C56.8182 65.9934 65.9934 56.8182 65.9934 45.5C65.9934 34.1818 56.8182 25.0066 45.5 25.0066C34.1818 25.0066 25.0066 34.1818 25.0066 45.5Z" stroke="#ECEEEE" stroke-width="40" mask="url(#path-1-inside-1)"/>
<path d="M45.5 2C45.5 0.895431 44.604 -0.00458734 43.5005 0.0439449C35.7766 0.383647 28.2544 2.68698 21.6514 6.7509C14.4797 11.1648 8.67371 17.4823 4.87965 25.0003C1.08559 32.5183 -0.547657 40.9417 0.161725 49.3329C0.814863 57.0587 3.43028 64.4781 7.74522 70.8935C8.36169 71.81 9.61794 71.9961 10.5065 71.34L27.4052 58.8616C28.2938 58.2055 28.4728 56.9575 27.9064 56.0092C26.3132 53.3421 25.3426 50.3394 25.0794 47.2263C24.7599 43.4469 25.4956 39.653 27.2044 36.2669C28.9133 32.8807 31.5283 30.0353 34.7585 28.0472C37.4191 26.4097 40.4111 25.4068 43.5031 25.1041C44.6024 24.9965 45.5 24.1112 45.5 23.0066V2Z" fill="url(#paint0_linear)"/>
<defs>
<linearGradient id="paint0_linear" x1="46.0001" y1="12.5001" x2="6.0001" y2="80.5001" gradientUnits="userSpaceOnUse">
<stop offset="0.00457001" stop-color="#E93A3A"/>
<stop offset="0.955801" stop-color="#E8A41F"/>
</linearGradient>
</defs>
</svg>
